<svg xmlns="http://www.w3.org/2000/svg" version="1.1" xmlns:xlink="http://www.w3.org/1999/xlink" xmlns:svgjs="http://svgjs.dev/svgjs" width="2000" height="267" viewBox="0 0 2000 267"><g transform="matrix(1,0,0,1,-1.2121212121212466,0.6853113087674956)"><svg viewBox="0 0 396 53" data-background-color="#282634" preserveAspectRatio="xMidYMid meet" height="267" width="2000" xmlns="http://www.w3.org/2000/svg" xmlns:xlink="http://www.w3.org/1999/xlink"><g id="tight-bounds" transform="matrix(1,0,0,1,0.2400000000000091,-0.13603557814485612)"><svg viewBox="0 0 395.52 53.2720711562897" height="53.2720711562897" width="395.52"><g><svg viewBox="0 0 395.52 53.2720711562897" height="53.2720711562897" width="395.52"><g><svg viewBox="0 0 395.52 53.2720711562897" height="53.2720711562897" width="395.52"><g><svg viewBox="0 0 395.52 53.2720711562897" height="53.2720711562897" width="395.52"><g><svg viewBox="0 0 395.52 53.2720711562897" height="53.2720711562897" width="395.52"><g transform="matrix(1,0,0,1,0,0)"><svg width="395.52" viewBox="0.5 -28.75 236.1 28.8" height="53.2720711562897" data-palette-color="#ff4057"><svg></svg><g class="undefined-text-0" data-fill-palette-color="primary" id="text-0"><path d="M34.95-28.75v25.35l-5.65 3.4h-10.35v-5.65h9.7v-23.1zM0.5-9.1h6.5v3.45h9.5v5.65h-10.15l-5.85-3.4zM39.95-22h6.3v22.05h-6.3zM46.15-28.7v4.65h-6.2v-4.65zM84.05-9.7v6.25l-5.7 3.45h-8.05v-5.25h7.7v-4.05h-7.55v-3.9h7.9zM54.25-12.75v-5.65l5.7-3.45h8.1v4.65h-7.5v4h7.5v3.9h-8.1zM54.25-6.95h6.3v1.7h7.5v5.25h-8.1l-5.7-3.45zM84.05-15.05h-6.25v-2.15h-7.5v-4.65h8.05l5.7 3.45zM92.05-3.4v-6.35l5.7-3.45h8.2v3.85h-7.55v4.1h7.55v5.3h-8.2zM98.4-15.05h-6.35v-3.45l5.7-3.5h8.2v4.7h-7.55zM122.05 0.05v-18.55l-5.7-3.5h-8.2v4.7h7.55v4.1h-7.55v3.85h7.55v4.1h-7.35v5.3zM131.55 0v-28.75h16v5.65h-9.7v17.25h9.7v5.85zM166-3.4v-21.9l-5.65-3.45h-10.35v5.65h9.7v17.25h-9.7v5.85h10.35zM201.1-18.55v5.7l-5.9 3.45h-8v-3.85h7.55v-4.1h-7.55v-4.7h8zM194.55-6.95h6.55v3.5l-5.9 3.45h-8v-5.3h7.35zM170.9-18.55v15.1l5.9 3.45h7.95v-5.3h-7.55v-4.1h7.55v-3.85h-7.55v-4.1h7.55v-4.7h-7.95zM205.6-20.05l6.3-1.8 8.25 12.55v9.3h-1.95zM236.6-20.05l-6.05-1.8-7.9 12.55v9.3h1.8z" fill="#ff4057" fill-rule="nonzero" stroke="none" stroke-width="1" stroke-linecap="butt" stroke-linejoin="miter" stroke-miterlimit="10" stroke-dasharray="" stroke-dashoffset="0" font-family="none" font-weight="none" font-size="none" text-anchor="none" style="mix-blend-mode: normal" data-fill-palette-color="primary" opacity="1"></path></g></svg></g></svg></g></svg></g></svg></g></svg></g><defs></defs></svg><rect width="395.52" height="53.2720711562897" fill="none" stroke="none" visibility="hidden"></rect></g></svg></g></svg>